PathFileType	4	(X/Y/Z)	C:\Users\WrightLab\Desktop\Jo\P3_11.trc
DataRate	CameraRate	NumFrames	NumMarkers	Units	OrigDataRate	OrigDataStartFrame	OrigNumFrames
100.00	100.00	       28	19	mm	100.00	490	       653
Frame#	Time	Headset_Front			Headset_Back			Headset_Left			Headset_Right			Left_Shoulder			Right_Shoulder			Sternum			C7			Left Elbow			Right Elbow			Left Wrist			Right Wrist			Left ASIS			Right ASIS			S2			Left Knee			Right Knee			Left Ankle			Right Ankle			
		X1	Y1	Z1	X2	Y2	Z2	X3	Y3	Z3	X4	Y4	Z4	X5	Y5	Z5	X6	Y6	Z6	X7	Y7	Z7	X8	Y8	Z8	X9	Y9	Z9	X10	Y10	Z10	X11	Y11	Z11	X12	Y12	Z12	X13	Y13	Z13	X14	Y14	Z14	X15	Y15	Z15	X16	Y16	Z16	X17	Y17	Z17	X18	Y18	Z18	X19	Y19	Z19	

490	4.890				-146.63580	1635.27490	2472.47949							-100.50833	1387.95093	2558.62354										-98.32941	1056.42542	2631.54199				-216.73778	888.94562	2655.82080	-434.21185	913.26685	2217.09009	-224.50803	920.55206	2527.25220										-258.98898	493.04343	2323.93872				-211.82417	159.89491	2345.01807	
491	4.900				-151.69090	1635.18262	2477.61890							-107.07821	1387.91296	2564.98169										-104.84033	1056.46204	2638.11523				-222.68651	887.79395	2658.90942	-433.66342	914.33667	2218.57617	-229.81111	920.63812	2529.60547										-258.80701	493.27115	2324.72363				-211.71619	160.02641	2345.00708	
492	4.910													-113.67100	1387.48779	2570.80884										-111.21691	1056.27576	2644.00098				-229.11391	887.42572	2663.14063	-432.91486	914.66064	2219.54419	-236.18991	921.32568	2533.29419										-258.70801	493.41962	2325.70190				-211.54877	160.09088	2344.90503	
493	4.920													-120.60371	1387.77039	2576.98364										-118.22779	1056.55444	2650.70044				-235.46065	887.39203	2667.60034	-432.14600	914.80023	2219.71899	-241.41782	921.65442	2536.84473										-258.93649	493.56021	2326.62939				-211.34332	160.32582	2345.86377	
494	4.930													-127.12797	1387.45056	2582.83130										-124.84468	1056.28540	2656.36157				-241.76622	887.05060	2671.92432	-430.44965	915.06256	2219.28735	-246.84058	922.88354	2539.73975										-259.10809	493.88971	2327.60889				-211.15076	160.47749	2345.61621	
495	4.940													-134.28159	1387.52820	2588.58130										-131.46017	1056.39087	2661.85303				-247.96851	885.85199	2674.94458	-428.80338	915.02539	2220.26367													-259.46585	494.32837	2328.94409				-210.94189	160.74889	2345.43799	
496	4.950													-141.22937	1387.57141	2595.06299										-138.66096	1056.13086	2667.93433				-254.00847	884.69452	2677.44360	-427.61230	914.42889	2222.59229													-259.97513	494.69003	2330.44824				-210.82487	160.83946	2345.32104	
497	4.960													-148.10455	1387.20166	2600.20972										-145.89786	1056.35706	2673.60181				-260.03162	884.18274	2680.87793	-424.76883	914.50177	2220.57056													-260.36908	495.08209	2332.41797				-210.60695	161.09026	2346.35938	
498	4.970													-155.09581	1387.24792	2605.99829										-152.68546	1055.90894	2678.85620				-265.85715	883.36194	2684.15552	-423.33600	913.69495	2223.57324													-260.98096	495.32947	2334.38721				-210.53401	161.40279	2346.38672	
499	4.980													-162.25316	1387.55151	2612.33887										-160.12129	1056.14307	2684.34204				-271.34650	882.49066	2686.41602	-421.38275	912.81750	2224.20923													-261.71832	495.82153	2336.43066				-210.44402	161.60033	2346.33301	
500	4.990													-169.76440	1387.58630	2617.80859										-167.49495	1056.07166	2689.44604				-277.32828	881.12439	2689.01172	-416.93723	911.67523	2220.38940													-262.63199	496.01224	2337.83252				-211.12184	163.05498	2345.17041	
501	5.000													-177.01849	1387.14697	2623.03516										-174.97290	1055.90552	2694.67578				-283.50839	880.04376	2691.37134	-413.15427	910.51233	2220.07178													-263.38373	496.06137	2339.08740				-210.99323	163.27682	2345.37402	
502	5.010																									-182.76036	1055.72900	2700.15625				-289.16245	878.58429	2693.32373	-410.29575	909.44635	2220.45703													-264.40298	497.42987	2342.67773				-211.01958	163.61665	2345.75830	
503	5.020																									-190.65767	1055.85925	2705.40332							-406.08392	908.59094	2221.14844													-265.25720	497.95117	2344.73804				-211.12854	163.85199	2345.91943	
504	5.030																									-197.97838	1055.18750	2709.59351							-401.45828	906.78674	2220.68579													-266.35049	498.58218	2344.74341				-210.89096	164.20854	2345.81934	
505	5.040																									-205.70711	1054.72461	2713.94141							-396.53741	905.42554	2220.47437													-267.40430	498.49194	2346.24341				-210.89371	164.48767	2345.56323	
506	5.050																									-213.41776	1054.37878	2718.18433							-391.52502	904.24139	2220.69482													-268.32059	498.35068	2349.88013				-210.85373	164.63753	2345.43262	
507	5.060																									-221.39627	1054.00378	2722.36108							-386.34906	902.97632	2221.01440													-269.85580	499.10196	2352.53076				-210.82906	164.80789	2345.59375	
508	5.070																									-229.22523	1053.54956	2726.52393							-381.00232	901.65717	2221.13062													-271.07059	499.36578	2354.86353				-210.72409	165.12195	2345.50391	
509	5.080																																		-375.14389	899.95526	2220.45068													-272.16492	498.76593	2358.20557				-210.49803	165.55066	2344.90161	
510	5.090																																		-369.22220	898.93005	2220.78198													-273.67334	499.06897	2359.40894				-210.39430	165.94031	2344.45483	
511	5.100																																		-363.20203	898.22522	2222.22803													-274.79669	498.93674	2361.06226				-210.16391	166.22421	2344.19434	
512	5.110																																		-356.40881	896.49518	2222.36597													-275.34479	498.99115	2363.43604				-209.86577	166.69780	2344.15088	
513	5.120																																		-349.40991	895.39612	2222.74438													-276.42444	500.10983	2364.70410				-209.50224	167.27255	2344.18188	
514	5.130																																		-342.21506	893.94879	2223.10840													-276.65103	500.36496	2365.88647				-208.66476	166.99706	2344.75806	
515	5.140																																		-335.11099	893.21124	2224.64941													-276.01111	500.11829	2370.31250				-207.98030	167.49043	2346.30542	
516	5.150																																		-327.14792	892.47906	2225.84277													-276.10181	500.59857	2372.33545				-208.56767	169.32219	2345.24805	
517	5.160																																		-319.70361	891.88354	2227.83569													-276.05106	500.97067	2372.97070				-208.25270	170.33762	2346.05713	
